<?xml version="1.0" encoding="UTF-8"?>
<svg id="_图层_1" data-name="图层 1" xmlns="http://www.w3.org/2000/svg" version="1.1" viewBox="0 0 113.1 116.2">
  <defs>
    <style>
      .cls-1 {
        fill: #f7e37b;
      }

      .cls-1, .cls-2, .cls-3, .cls-4, .cls-5, .cls-6, .cls-7 {
        stroke-width: 0px;
      }

      .cls-2 {
        fill: #e9991d;
      }

      .cls-3 {
        fill: #f7f8f8;
      }

      .cls-4 {
        fill: #898989;
      }

      .cls-5 {
        fill: #231815;
      }

      .cls-6 {
        fill: #00a0e9;
        opacity: 0;
      }

      .cls-7 {
        fill: #7f4f21;
      }
    </style>
  </defs>
  <g>
    <path class="cls-5" d="M105.8,89.1c1.1,1.1,1.1,2.8,0,3.9-.5.5-1.3.8-2,.8s-1.4-.3-2-.8l-1.1-1.1c-10.7,12.1-31,20.1-51,20.1-29.1,0-41.8-20.6-43.3-26.8-.7-2.9-.6-6.1-.2-9.1.4-3.5,1.2-6.8,1.6-9.3.3-2-.6-5-1.1-8.7-1.2-1.3-1.5-2.7-1.5-4.1s.4-3.5,1.8-5.5c.7-3,2-6.4,4.4-9.9,2.7-4,6.6-7.1,11.1-9.4-2.2-4.2-.5-23.2,2.6-24.1,5-1.5,18.4,14.2,18.4,17.3s-.1.6-.4.9c4.8-.6,9.5-.9,13.7-.9,7,0,13.1.7,18.3,1.8.5-4.5,16.1-22,24.6-17.6,5,2.6,6.4,30.3,2.7,36.8,4.9,9,5.9,19.7,5.9,29,0,.3,0,.7,0,1,0,5-1.5,9.7-4.3,14l1.7,1.7Z"/>
    <path class="cls-5" d="M49.7,116.5c-30.1,0-45.4-20.8-47.7-30.2-.7-3-.8-6.5-.3-10.7.3-2.4.7-4.6,1.1-6.6.2-1,.4-2,.5-2.9,0-.5-.2-2.2-.5-3.5-.2-.8-.3-1.7-.5-2.7-1.2-1.7-1.8-3.7-1.8-5.9s.3-4.4,2.1-7.3c.9-3.6,2.5-7.2,4.8-10.6,2.4-3.5,5.6-6.6,9.7-9.1-.9-6.8.4-17.5,2.2-21.9.4-.9,1.5-3.5,4.3-4.3,2.8-.8,6.1.2,10,3.1,3.3,2.5,10.1,9.2,12.9,14.5,3.3-.3,6.7-.4,10.1-.4,5.6,0,10.9.4,15.7,1.2,3.2-5.4,10-12.1,15.9-15.3,6.4-3.4,10.8-2.5,13.4-1.1,2.2,1.2,3.8,3.6,5,7.6,2.3,7.9,3.2,24.7.6,33,4.8,10.1,5.4,21.3,5.5,29.2,0,.4,0,.7,0,1.1,0,4.6-1.1,9-3.2,13.3,2.1,2.8,1.9,6.9-.7,9.5-1.4,1.4-3.2,2.1-5.2,2.1s-1.8-.2-2.6-.5c-12,11.4-31.7,18.6-51.5,18.6ZM27.2,10.2c-1.2,4.6-1.8,14.5-.8,17l2,4-4,2c-4.2,2.2-7.3,4.8-9.4,8-1.9,2.8-3.1,5.5-3.7,8.3l-.2.9-.5.8c-.9,1.3-1,2.5-1,2.9,0,.6.1.8.3,1l1,1.1.2,1.5c.2,1.2.4,2.4.6,3.5.4,2.4.8,4.5.5,6.6-.2,1-.4,2-.6,3.1-.4,1.8-.8,3.9-1,6-.4,3.1-.3,5.5.1,7.5.9,3.8,11.5,23.3,38.9,23.3s37.9-7.5,47.6-18.6l1.7-2,1.2-2c2.4-3.8,3.6-7.7,3.6-11.6s0-.6,0-.9h0c0-7.5-.7-18.3-5.4-27l-1.2-2.2,1.2-2.2c2.5-4.4,1.6-26.4-1.2-30.7-.8-.2-2,0-3.5.6-6.4,2.7-13.5,11.2-14.3,13.7l-.5,4.9-4.9-1.1c-5.1-1.1-10.9-1.7-17.3-1.7s-8.9.3-13.1.8l-11.2,1.5,5.9-7.3c-2.1-3.3-7.7-9.5-11.2-11.6ZM79.6,24.7h0s0,0,0,0ZM97.1,10.2h0s0,0,0,0Z"/>
  </g>
  <g>
    <g>
      <path class="cls-3" d="M108.4,73.4c0,21.8-29.6,38.6-58.7,38.6S7.9,91.4,6.4,85.2c-.7-2.9-.6-6.1-.2-9.1.3-.5.6-1,1-1.3,4.6-4.1,7.5-7.5,15.2-7.6,7.8-.1,8.8,6.7,14.9,6.7s10.4-6.5,16.8-6.7c6.3-.2,25.5,10.7,35.8,10.4,6.4-.1,13.5-2.6,18.5-5.2,0,.3,0,.7,0,1Z"/>
      <path class="cls-1" d="M108.4,72.4c-5.1,2.6-12.2,5-18.5,5.2-10.3.2-29.5-10.7-35.8-10.4-6.3.3-10.7,6.7-16.8,6.7s-7.1-6.9-14.9-6.7c-7.7.1-10.7,3.6-15.2,7.6-.4.3-.7.8-1,1.3.4-3.5,1.2-6.8,1.6-9.3.8-4.7-5.5-14.9,3.6-28.2,2.7-4,6.6-7.1,11.1-9.4,6.2-3.2,13.5-5,20.6-6,4.8-.6,9.5-.9,13.7-.9,7,0,13.1.7,18.3,1.8,14.4,3.2,22.7,10.5,27.3,19.2,4.9,9,5.9,19.7,5.9,29Z"/>
      <path class="cls-2" d="M43.5,22.3c0,.3-.1.6-.4.9-7.1.9-14.4,2.7-20.6,6-2.2-4.2-.5-23.2,2.6-24.1,5-1.5,18.4,14.2,18.4,17.3Z"/>
      <path class="cls-2" d="M102.4,43.4c-4.7-8.7-12.9-15.9-27.3-19.2.5-4.5,16.1-22,24.6-17.6,5,2.6,6.4,30.3,2.7,36.8Z"/>
      <path class="cls-7" d="M61.9,83.3c-.1,2.5-8.4,10.2-15.2,10.5-6.9.4-9.7-9.1-11.4-9.1s-1.5,4.9-7.6,4.9c-6.1,0-6.4-5.4-6.1-7.7.3-2.3,1.4-4.3,4.3-4.3s1.1,3.2,3.2,3.2,1.6-2.4,2.6-4.8c-3.9-1.1-5.9-3.7-6.5-6-.9-3.3,4.8-4.3,11.9-4.6,7.1-.2,10.5.6,11.2,2.4.6,1.6-2.9,7-9.1,8.3,1,3.8,2.5,8.2,7.6,8.2,8.8-.1,5.1-6.8,10.1-6.7,5,0,5.2,3.1,5.1,5.7Z"/>
    </g>
    <path class="cls-3" d="M91.2,53.3c0,6.7-9.5,8.5-21.3,8.5h-.5c.4-.9.7-1.9.7-3,0-3.7-3-6.7-6.7-6.7s-6.7,3-6.7,6.7,0,.9.1,1.3c-3.7-1.3-5.8-3.4-5.8-6.3,0-5.2,4.1-11.2,18.8-11.2s21.3,4,21.3,10.7Z"/>
    <path class="cls-3" d="M41.7,53.2c0,3-2.3,6.1-8.9,7.6.2-.6.3-1.2.3-1.9,0-3.7-3-6.7-6.7-6.7s-6.7,3-6.7,6.7.2,2,.7,2.9c-13.1-.3-15.2-4.4-15.2-7.8s2.5-11.3,17.6-11.3,18.9,6.4,18.9,10.6Z"/>
    <path class="cls-5" d="M33.1,58.9c0,.7,0,1.3-.3,1.9-2.7.6-6.2,1-10.5,1s-1.3,0-1.9,0c-.4-.9-.7-1.8-.7-2.9,0-3.7,3-6.7,6.7-6.7s6.7,3,6.7,6.7Z"/>
    <path class="cls-5" d="M70.1,58.9c0,1.1-.2,2.1-.7,3-5.2,0-9.4-.6-12.5-1.7,0-.4-.1-.8-.1-1.3,0-3.7,3-6.7,6.7-6.7s6.7,3,6.7,6.7Z"/>
    <g>
      <path class="cls-4" d="M70,31.4c-13.7,0-24.8,11.1-24.8,24.8s11.1,24.8,24.8,24.8,24.8-11.1,24.8-24.8-11.1-24.8-24.8-24.8ZM69.9,76.7c-11.3,0-20.5-9.2-20.5-20.5s9.2-20.5,20.5-20.5,20.5,9.2,20.5,20.5-9.2,20.5-20.5,20.5Z"/>
      <path class="cls-6" d="M90.5,56.2c0,11.3-9.2,20.5-20.5,20.5s-20.5-9.2-20.5-20.5,9.2-20.5,20.5-20.5,20.5,9.2,20.5,20.5Z"/>
      <rect class="cls-4" x="80" y="79.6" width="30.2" height="5.6" rx="2.8" ry="2.8" transform="translate(104.1 207.8) rotate(-135)"/>
    </g>
  </g>
</svg>